<svg width="23" height="21" viewBox="0 0 23 21" fill="none" xmlns="http://www.w3.org/2000/svg">
<g clip-path="url(#clip0_2036_233)">
<path fill-rule="evenodd" clip-rule="evenodd" d="M9.59803 0.370361C12.9241 0.370361 15.1154 2.21425 15.1154 4.66666C15.1154 6.56032 13.8409 8.06629 11.299 9.21497C12.5676 10.3046 13.6535 11.4301 14.4211 12.4804C15.6072 10.0434 17.2341 8.75925 18.8751 8.75925C20.5992 8.75925 21.7701 9.85457 21.7701 11.4444C21.7701 12.8182 20.6791 13.9352 19.2981 13.9352C18.0754 13.9352 17.1022 13.0418 16.9358 11.8819C16.4102 12.333 15.9018 12.9862 15.4121 13.8722C17.0643 16.4995 18.1327 17.3426 19.3545 17.3426C19.8272 17.3426 20.1449 17.2198 20.9238 16.7L21.2649 16.4724L21.5386 16.7757L21.7642 17.0257L22.0435 17.3352L21.7623 17.643C20.1114 19.4499 18.4786 20.3796 16.7885 20.3796C14.8931 20.3796 13.7457 19.6693 12.4377 17.618C11.0004 19.4273 9.09686 20.3796 6.63725 20.3796C3.19769 20.3796 0.837891 18.2583 0.837891 15.2222C0.837891 12.7218 2.40972 10.8661 5.50834 9.69392C4.19606 8.29034 3.62948 7.04834 3.62948 5.55555C3.62948 2.5095 6.00566 0.370361 9.59803 0.370361ZM14.8079 13.0458C14.7729 13.1039 14.738 13.163 14.7033 13.2231C14.6192 13.3685 14.536 13.5194 14.4537 13.676L14.3322 13.9072L14.4696 14.1296C14.5228 14.2157 14.5756 14.3003 14.628 14.3834L14.5867 14.4845L14.1008 13.6815C13.319 12.3896 11.8697 10.8696 10.1161 9.43999L9.50534 8.94203L10.242 8.65319C12.9358 7.59684 14.1755 6.28268 14.1755 4.66666C14.1755 2.76085 12.4349 1.29629 9.59803 1.29629C6.50681 1.29629 4.56941 3.04042 4.56941 5.55555C4.56941 6.95205 5.16753 8.09082 6.68458 9.55858L7.23565 10.0917L6.50169 10.3288C3.292 11.3655 1.77782 12.9898 1.77782 15.2222C1.77782 17.727 3.69858 19.4537 6.63725 19.4537C9.02281 19.4537 10.7713 18.4595 12.0832 16.521L12.5038 15.8994L12.8817 16.5471C14.2002 18.8071 15.0974 19.4537 16.7885 19.4537C17.7661 19.4537 18.7559 19.0526 19.7791 18.2399C20.2747 18.1678 20.7289 17.9485 21.4509 17.4666L21.3794 17.3627L21.4129 17.3333L21.2754 17.2114L21.1874 17.0833L21.159 17.1082L21.0636 17.0236C20.6288 17.4996 20.2011 17.9048 19.7791 18.2399C19.6428 18.2598 19.5035 18.2685 19.3545 18.2685C17.7375 18.2685 16.4306 17.2414 14.628 14.3834L14.9405 13.617C15.3524 12.6072 15.8258 11.7934 16.3301 11.174C16.5881 10.9537 16.8531 10.7704 17.1254 10.6224L17.3914 10.4778L17.6344 10.6574L17.7472 10.7407L18.0182 10.9409L17.9111 11.2575C17.8777 11.3561 17.8677 11.3881 17.8606 11.4199C17.8537 11.4505 17.8506 11.4798 17.8506 11.5278C17.8506 12.3536 18.4836 13.0093 19.2981 13.0093C20.1517 13.0093 20.8302 12.3147 20.8302 11.4444C20.8302 10.377 20.0906 9.68518 18.8751 9.68518C18.0307 9.68518 17.1404 10.1789 16.3301 11.174C15.7929 11.6327 15.2861 12.2518 14.8079 13.0458Z" fill="black"/>
<path fill-rule="evenodd" clip-rule="evenodd" d="M6.46179 9.90738L6.77384 9.62793L7.08953 9.90338C9.18466 11.7314 11.5088 14.3113 12.6204 16.0906L12.7926 16.3664L12.5888 16.6204C11.5677 17.8926 10.2885 18.5462 8.86457 18.5462C6.26713 18.5462 4.4751 16.8436 4.4751 14.2499C4.4751 12.5124 5.11988 11.1091 6.46179 9.90738ZM11.8515 16.0461L11.8199 16.5759C11.763 16.4849 11.7026 16.3914 11.639 16.2959C11.7109 16.2163 11.7817 16.133 11.8515 16.0461ZM6.78954 10.883C5.85177 11.8385 5.41503 12.9134 5.41503 14.2499C5.41503 16.3246 6.77878 17.6203 8.86457 17.6203C9.89841 17.6203 10.8359 17.1847 11.639 16.2959C10.5815 14.7079 8.62259 12.5323 6.78954 10.883ZM6.78954 10.883C6.88575 10.7849 6.98723 10.6882 7.09406 10.5925L6.46632 10.5965C6.57348 10.69 6.68129 10.7856 6.78954 10.883Z" fill="black"/>
<path fill-rule="evenodd" clip-rule="evenodd" d="M10.162 8.90299L9.83099 9.18994L9.51921 8.8828C7.43367 6.82834 6.73096 5.61094 6.73096 3.99988C6.73096 2.08687 7.81034 0.814697 9.42855 0.814697C11.1863 0.814697 12.1825 2.12624 12.1825 4.27766C12.1825 6.33044 11.6352 7.62592 10.162 8.90299ZM9.42855 1.74062C8.37049 1.74062 7.67089 2.56518 7.67089 3.99988C7.67089 5.23872 8.1922 6.21292 9.86541 7.90998C9.76391 8.00924 9.65588 8.10834 9.54105 8.20789L10.1838 8.22807C10.0733 8.11922 9.96724 8.01326 9.86541 7.90998C10.8795 6.91825 11.2426 5.91038 11.2426 4.27766C11.2426 2.58893 10.5982 1.74062 9.42855 1.74062Z" fill="black"/>
</g>
<defs>
<clipPath id="clip0_2036_233">
<rect width="22" height="21" fill="white" transform="translate(0.395996)"/>
</clipPath>
</defs>
</svg>
